<?xml version="1.0" encoding="utf-8"?>
<!-- Generator: Adobe Illustrator 25.0.0, SVG Export Plug-In . SVG Version: 6.00 Build 0)  -->
<svg version="1.1" id="Camada_1" xmlns="http://www.w3.org/2000/svg" xmlns:xlink="http://www.w3.org/1999/xlink" x="0px" y="0px"
	 viewBox="0 0 1632.2 327" style="enable-background:new 0 0 1632.2 327;" xml:space="preserve">
<style type="text/css">
	.st0{fill-rule:evenodd;clip-rule:evenodd;}
	path{fill:#fff;}
</style>
<g>
	<path d="M563.8,121.7v-19L556,117h-2.5l-7.9-14.4v19h-4.2V95h4.5l8.9,16.3l8.9-16.3h4.5v26.7L563.8,121.7z"/>
	<path d="M581.7,121.7V95h4.2v26.7H581.7z"/>
	<path d="M603.6,102.8v18.8h-4.2V95h3.4l15.1,19.4V95.1h4.2v26.7h-3.7L603.6,102.8z"/>
	<path d="M635.8,121.7V95h4.2v26.7H635.8z"/>
	<path d="M669.3,101.3c-0.6-0.6-1.5-1.2-2.9-1.8c-1.4-0.6-2.8-0.9-4.2-0.9c-1.7,0-3,0.3-3.9,1c-0.9,0.6-1.3,1.5-1.3,2.7
		c0,0.4,0,0.7,0.1,1s0.2,0.6,0.4,0.8c0.2,0.2,0.4,0.4,0.7,0.6c0.3,0.2,0.6,0.4,0.9,0.5c0.3,0.1,0.7,0.3,1.2,0.5
		c0.5,0.2,1,0.3,1.4,0.4c0.4,0.1,1,0.3,1.8,0.4c1.2,0.3,2.2,0.6,3,0.8c0.8,0.3,1.6,0.6,2.4,1c0.8,0.4,1.4,0.9,1.8,1.4
		c0.5,0.5,0.8,1.1,1.1,1.9c0.3,0.8,0.4,1.6,0.4,2.5c0,1.1-0.2,2-0.5,2.9c-0.3,0.9-0.8,1.6-1.4,2.2c-0.6,0.6-1.3,1.1-2.1,1.5
		c-0.8,0.4-1.7,0.7-2.7,0.9c-0.9,0.2-2,0.3-3.1,0.3c-2,0-4-0.3-5.9-0.9c-1.9-0.6-3.6-1.5-5.1-2.7l1.9-3.6c0.8,0.8,2,1.6,3.7,2.3
		c1.7,0.7,3.5,1.1,5.3,1.1c1.7,0,2.9-0.3,3.8-0.9c0.9-0.6,1.3-1.4,1.3-2.5c0-0.4-0.1-0.8-0.2-1.2c-0.1-0.4-0.4-0.7-0.7-1
		c-0.3-0.3-0.7-0.5-1-0.7c-0.3-0.2-0.8-0.4-1.5-0.6c-0.6-0.2-1.2-0.4-1.8-0.5c-0.5-0.1-1.2-0.3-2.1-0.6c-1.4-0.4-2.6-0.7-3.5-1.1
		c-0.9-0.4-1.7-0.8-2.4-1.4c-0.7-0.6-1.2-1.2-1.5-1.9c-0.3-0.7-0.5-1.6-0.5-2.7c0-1.3,0.2-2.4,0.7-3.5c0.5-1.1,1.2-1.9,2-2.5
		c0.8-0.6,1.9-1.2,3-1.5c1.2-0.4,2.4-0.5,3.8-0.5c3.3,0,6.2,1,9,3L669.3,101.3z"/>
	<path d="M703.6,98.7h-8.9v23h-4.2v-23h-8.9V95h22.1v3.7H703.6z"/>
	<path d="M733,117.9v3.7h-18.3V95h17.9v3.7h-13.8v7.6h11.9v3.5h-11.9v8.2L733,117.9z M725.5,92.2l-2.7-0.8l2.1-4.1h3.9L725.5,92.2z"
		/>
	<path d="M744.9,121.7V95h11.6c1.2,0,2.3,0.2,3.3,0.7s1.9,1.2,2.6,2s1.3,1.7,1.7,2.8c0.4,1.1,0.6,2.1,0.6,3.1c0,1.8-0.5,3.4-1.4,4.9
		c-0.9,1.5-2.2,2.4-3.8,2.9l6.2,10.2h-4.7l-5.8-9.3H749v9.3H744.9z M749.1,108.7h7.4c1.2,0,2.1-0.5,2.9-1.4c0.8-1,1.1-2.1,1.1-3.5
		c0-1.3-0.4-2.5-1.3-3.5c-0.9-1-1.8-1.4-3-1.4H749v9.9H749.1z"/>
	<path d="M777.3,121.7V95h4.2v26.7H777.3z"/>
	<path d="M793.3,108.4c0-1.8,0.3-3.4,1-5.1c0.6-1.6,1.5-3.1,2.7-4.3c1.1-1.2,2.5-2.2,4.1-3c1.6-0.8,3.3-1.1,5.1-1.1s3.6,0.4,5.2,1.2
		c1.6,0.8,2.9,1.8,4,3.1c1.1,1.3,1.9,2.7,2.5,4.3c0.6,1.6,0.9,3.2,0.9,4.9c0,1.7-0.3,3.4-1,5.1c-0.7,1.6-1.5,3.1-2.6,4.3
		c-1.1,1.2-2.5,2.2-4,2.9c-1.5,0.7-3.3,1.1-5.1,1.1c-1.5,0-2.9-0.2-4.2-0.7c-1.3-0.5-2.5-1.2-3.5-2c-1-0.9-1.9-1.9-2.6-3
		s-1.3-2.4-1.7-3.7C793.5,111.1,793.3,109.7,793.3,108.4z M806.1,118.1c1.3,0,2.5-0.3,3.6-0.8c1.1-0.6,2-1.3,2.7-2.2
		c0.7-0.9,1.2-1.9,1.6-3.1c0.4-1.1,0.6-2.3,0.6-3.5c0-1.3-0.2-2.5-0.6-3.6c-0.4-1.2-1-2.2-1.7-3.1s-1.6-1.6-2.7-2.1
		c-1.1-0.5-2.2-0.8-3.5-0.8s-2.5,0.3-3.6,0.8c-1.1,0.5-2,1.3-2.7,2.2c-0.7,0.9-1.3,1.9-1.6,3.1c-0.4,1.1-0.6,2.3-0.6,3.5
		c0,1.7,0.3,3.2,1,4.7s1.7,2.6,3,3.6C803,117.6,804.5,118.1,806.1,118.1z"/>
	<path d="M847.6,121.7V95h9.5c2.1,0,3.9,0.3,5.6,1c1.7,0.7,3,1.6,4.1,2.8c1.1,1.2,1.9,2.6,2.4,4.2c0.6,1.6,0.8,3.3,0.8,5.1
		c0,4-1.2,7.3-3.5,9.8c-2.4,2.4-5.5,3.6-9.5,3.6h-9.5L847.6,121.7L847.6,121.7z M857.1,98.7h-5.2v19.2h5.2c1.8,0,3.4-0.4,4.7-1.3
		c1.3-0.8,2.3-2,3-3.4c0.7-1.4,1-3.1,1-4.9c0-2.8-0.8-5.1-2.3-7C861.9,99.6,859.8,98.7,857.1,98.7z"/>
	<path d="M888.8,95h4l10.4,26.7h-4.4l-2.8-7.3h-10.3l-2.8,7.3h-4.5L888.8,95z M895.1,111.3l-4.3-11.7l-4.4,11.7H895.1z"/>
</g>
<g>
	<g>
		<path d="M583.1,179.1l1-4.4h-1.6v-5.2h4.3v5.2l-1.5,4.4H583.1z"/>
		<path d="M586.4,180.6h-5.2l1-4.4h-1.2v-8.3h7.4v7L586.4,180.6z M584,173.1h1.3V171H584V173.1z"/>
	</g>
	<g>
		<g>
			<path d="M392.3,148c2.4,0,4.5,0.5,6.3,1.6c1.8,1,3.2,2.4,4,4.2l-4,2.7c-0.4-0.9-1-1.7-1.8-2.3c-0.8-0.6-1.5-1-2.3-1.3
				c-0.8-0.3-1.6-0.3-2.4-0.3c-1.2,0-2.4,0.3-3.4,0.8c-1,0.5-1.8,1.2-2.4,2.1c-0.6,0.9-1.1,1.8-1.4,2.8s-0.5,2.1-0.5,3.2
				c0,1.6,0.3,3,1,4.4c0.6,1.4,1.6,2.5,2.8,3.3c1.2,0.8,2.5,1.3,4,1.3c0.9,0,1.7-0.1,2.5-0.4c0.8-0.3,1.6-0.7,2.3-1.3
				c0.7-0.6,1.3-1.4,1.7-2.3l4.2,2.4c-0.5,1.3-1.4,2.4-2.6,3.3s-2.5,1.7-4,2.1c-1.4,0.5-2.9,0.7-4.4,0.7s-2.9-0.3-4.2-0.8
				s-2.5-1.2-3.6-2.1c-1-0.9-1.9-1.9-2.7-3.1c-0.8-1.1-1.4-2.4-1.8-3.7c-0.4-1.3-0.6-2.7-0.6-4c0-1.6,0.3-3.2,0.9-4.8
				c0.6-1.6,1.4-3,2.5-4.2c1.1-1.3,2.5-2.3,4.1-3C388.1,148.6,390.3,148,392.3,148z"/>
			<path d="M391.9,176.7c-1.6,0-3.2-0.3-4.8-0.9c-1.5-0.6-2.8-1.4-4-2.4c-1.2-1.1-2.2-2.2-3-3.5c-0.8-1.1-1.5-2.6-2-4.1
				c-0.4-1.4-0.7-3-0.7-4.5c0-1.8,0.3-3.6,1-5.4c0.7-1.9,1.6-3.4,2.8-4.7c1.2-1.4,2.8-2.6,4.6-3.4c2.1-0.9,4.5-1.4,6.5-1.4
				c2.8,0,5.1,0.6,7.1,1.8c2.1,1.2,3.7,2.8,4.6,4.9l0.5,1.2l-6.6,4.5l-0.7-1.7c-0.3-0.7-0.8-1.3-1.3-1.7c-0.7-0.5-1.3-0.9-1.9-1.1
				c-0.5-0.2-1.2-0.2-1.9-0.2c-0.9,0-1.9,0.2-2.7,0.6c-0.8,0.4-1.4,0.9-1.8,1.6c-0.6,0.9-1,1.7-1.2,2.4c-0.3,1-0.4,1.9-0.4,2.8
				c0,1.4,0.3,2.6,0.8,3.7c0.5,1.1,1.3,2,2.3,2.7c1.1,0.7,2.1,1.1,3.2,1.1c0.8,0,1.4-0.1,2-0.3c0.8-0.3,1.4-0.6,1.9-1
				c0.5-0.5,1-1.1,1.3-1.8l0.7-1.5l6.8,3.9l-0.5,1.2c-0.6,1.5-1.6,2.9-3.1,4c-1.7,1.2-3.1,2-4.6,2.4
				C395.4,176.4,393.7,176.7,391.9,176.7z M392.3,149.5c-1.9,0-3.9,0.6-5.2,1.2c-1.4,0.6-2.6,1.5-3.6,2.6c-1,1.1-1.7,2.3-2.3,3.8
				c-0.5,1.4-0.8,2.9-0.8,4.3c0,1.2,0.2,2.5,0.5,3.6c0.4,1.2,0.9,2.4,1.6,3.3c0.7,1.1,1.5,2,2.5,2.9c0.9,0.8,2,1.4,3.2,1.8
				c2.7,1,5.5,0.8,7.6,0.1c1.2-0.3,2.3-0.9,3.6-1.9c0.6-0.5,1.1-1,1.5-1.5l-1.6-0.9c-0.4,0.5-0.8,1-1.3,1.4
				c-0.8,0.6-1.7,1.2-2.8,1.6c-0.9,0.3-1.9,0.5-3.1,0.5c-1.7,0-3.3-0.5-4.9-1.6c-1.5-1-2.7-2.4-3.4-4c-0.8-1.5-1.1-3.1-1.1-5
				c0-1.2,0.2-2.4,0.6-3.7c0.3-1,0.8-2,1.6-3.2c0.7-1.1,1.8-2,3-2.6c1.2-0.6,2.7-1,4.1-1c0.9,0,1.9,0,3,0.4c0.9,0.3,1.8,0.8,2.7,1.5
				c0.5,0.4,1,0.8,1.4,1.4l1.5-1c-0.7-1-1.6-1.8-2.8-2.4C396.3,150,394.5,149.5,392.3,149.5z"/>
		</g>
		<g>
			<path d="M414.1,174.8v-26.7h5.1v26.7H414.1z"/>
			<path d="M420.7,176.3h-8.2v-29.8h8.2V176.3z M415.6,173.2h2.1v-23.6h-2.1V173.2z"/>
		</g>
		<g>
			<path d="M450.8,170.2v4.5h-18.5v-26.7h18.2v4.5h-13v6.5h11.3v4.2h-11.3v7L450.8,170.2L450.8,170.2z M435.9,144.1l4-3.8h3.6l4,3.8
				l-2.6,1.2l-3.2-2.4l-3.2,2.4L435.9,144.1z"/>
			<path d="M452.4,176.3h-21.6v-29.8h6.7l-4.2-2l6.1-5.8h4.9l6.1,5.8l-4.2,2h6v7.6h-13v3.4h11.3v7.3h-11.3v3.9h13.3V176.3z
				 M433.8,173.2h15.5v-1.5H436v-10h11.3v-1.2H436v-9.5h13v-1.5h-15.2V173.2z M439.5,146.5h4.5l-2.3-1.7L439.5,146.5z M442.9,141.8
				l0.5,0.4L442.9,141.8z M440.6,141.8l-0.4,0.4l0.5-0.4H440.6z"/>
		</g>
		<g>
			<path d="M467.7,157.6v17.1h-5.1v-26.7h4.1l13.8,17.6v-17.5h5.2v26.7h-4.3L467.7,157.6z"/>
			<path d="M487.2,176.4h-6.6L469.2,162v14.3H461v-29.8h6.4l11.5,14.7v-14.6h8.3V176.4z M482.1,173.3h2.1v-23.6H482v20.4l-16.1-20.5
				h-1.9v23.6h2.1v-20L482.1,173.3z"/>
		</g>
		<g>
			<path d="M510.2,148c2.4,0,4.5,0.5,6.3,1.6c1.8,1,3.2,2.4,4,4.2l-4,2.7c-0.4-0.9-1-1.7-1.8-2.3c-0.8-0.6-1.5-1-2.3-1.3
				c-0.8-0.3-1.6-0.3-2.4-0.3c-1.2,0-2.4,0.3-3.4,0.8c-1,0.5-1.8,1.2-2.4,2.1c-0.6,0.9-1.1,1.8-1.4,2.8s-0.5,2.1-0.5,3.2
				c0,1.6,0.3,3,1,4.4c0.6,1.4,1.6,2.5,2.8,3.3c1.2,0.8,2.5,1.3,4,1.3c0.9,0,1.7-0.1,2.5-0.4c0.8-0.3,1.6-0.7,2.3-1.3
				c0.7-0.6,1.3-1.4,1.7-2.3l4.2,2.4c-0.5,1.3-1.4,2.4-2.6,3.3c-1.2,0.9-2.5,1.7-4,2.1c-1.4,0.5-2.9,0.7-4.4,0.7s-2.9-0.3-4.2-0.8
				s-2.5-1.2-3.6-2.1c-1-0.9-1.9-1.9-2.7-3.1c-0.8-1.1-1.4-2.4-1.8-3.7c-0.4-1.3-0.6-2.7-0.6-4c0-1.6,0.3-3.2,0.9-4.8
				c0.6-1.6,1.4-3,2.5-4.2c1.1-1.3,2.5-2.3,4.1-3C506,148.6,508.2,148,510.2,148z"/>
			<path d="M509.8,176.7c-1.6,0-3.2-0.3-4.8-0.9c-1.5-0.6-2.8-1.4-4-2.4c-1.2-1.1-2.2-2.2-3-3.5c-0.8-1.1-1.5-2.6-2-4.1
				c-0.4-1.4-0.7-3-0.7-4.5c0-1.8,0.3-3.6,1-5.4c0.7-1.9,1.6-3.4,2.8-4.7c1.2-1.4,2.8-2.6,4.6-3.4c2.1-0.9,4.5-1.4,6.5-1.4
				c2.8,0,5.1,0.6,7.1,1.8c2.1,1.2,3.7,2.9,4.6,4.9l0.5,1.2l-6.6,4.5l-0.7-1.7c-0.3-0.7-0.8-1.3-1.3-1.7c-0.7-0.5-1.3-0.9-1.9-1.1
				c-0.5-0.2-1.2-0.2-1.9-0.2c-0.9,0-1.9,0.2-2.7,0.6c-0.8,0.4-1.4,0.9-1.8,1.6c-0.6,0.9-1,1.7-1.2,2.4c-0.3,1-0.4,1.9-0.4,2.8
				c0,1.4,0.3,2.6,0.8,3.7c0.5,1.1,1.3,2,2.3,2.7c1.1,0.7,2.1,1.1,3.2,1.1c0.8,0,1.4-0.1,2-0.3c0.8-0.3,1.4-0.6,1.9-1
				c0.5-0.5,1-1.1,1.3-1.8l0.7-1.5l6.8,3.9l-0.5,1.2c-0.6,1.5-1.6,2.9-3.1,4c-1.1,0.8-2.6,1.9-4.6,2.4
				C513.3,176.4,511.6,176.7,509.8,176.7z M510.2,149.5c-1.9,0-3.9,0.6-5.2,1.2c-1.4,0.6-2.6,1.5-3.6,2.6c-1,1.1-1.7,2.3-2.3,3.8
				c-0.5,1.4-0.8,2.9-0.8,4.3c0,1.2,0.2,2.5,0.5,3.6c0.4,1.2,0.9,2.4,1.6,3.3c0.7,1.1,1.5,2,2.5,2.9c0.9,0.8,2,1.4,3.2,1.8
				c2.7,1,5.5,0.8,7.6,0.1c1.2-0.3,2.3-0.9,3.6-1.9c0.6-0.5,1.1-1,1.5-1.5l-1.6-0.9c-0.4,0.5-0.8,1-1.3,1.4
				c-0.8,0.6-1.7,1.2-2.8,1.6c-0.9,0.3-1.9,0.5-3.1,0.5c-1.7,0-3.3-0.5-4.9-1.6c-1.5-1-2.7-2.4-3.4-4c-0.8-1.5-1.1-3.1-1.1-5
				c0-1.2,0.2-2.4,0.6-3.7c0.3-1,0.8-2,1.6-3.2c0.7-1.1,1.8-2,3-2.6c1.2-0.6,2.7-1,4.1-1c0.9,0,1.9,0,3,0.4c0.9,0.3,1.8,0.8,2.7,1.5
				c0.5,0.4,1,0.8,1.4,1.4l1.5-1c-0.7-1-1.6-1.8-2.8-2.4C514.2,150,512.4,149.5,510.2,149.5z"/>
		</g>
		<g>
			<path d="M532,174.8v-26.7h5.1v26.7H532z"/>
			<path d="M538.6,176.3h-8.2v-29.8h8.2V176.3z M533.5,173.2h2.1v-23.6h-2.1V173.2z"/>
		</g>
		<g>
			<path d="M557.5,148.1h5.2l9.8,26.7h-5.3l-2.5-6.7h-9.4l-2.4,6.7h-5.3L557.5,148.1z M563.8,164.5l-3.7-11l-3.8,11H563.8z"/>
			<path d="M574.7,176.3h-8.6l-2.5-6.7h-7.2l-2.4,6.7h-8.6l11.1-29.8h7.4L574.7,176.3z M568.2,173.2h2.1l-8.7-23.6h-1.3L566,166
				h-11.8l5.7-16.4h-1.3l-8.8,23.6h2.1l2.4-6.7h11.5L568.2,173.2z M558.4,163h3.3l-1.6-4.7L558.4,163z"/>
		</g>
		<g>
			<path d="M616.9,152.6h-8.6v22.2h-5.1v-22.2h-8.6v-4.5h22.3V152.6z"/>
			<path d="M609.9,176.3h-8.2v-22.2h-8.6v-7.6h25.3v7.6h-8.6V176.3z M604.8,173.2h2.1v-22.2h8.6v-1.5h-19.2v1.5h8.6V173.2z"/>
		</g>
		<g>
			<path d="M646.4,170.2v4.5h-18.5v-26.7h18.2v4.5h-13v6.5h11.3v4.2h-11.3v7L646.4,170.2L646.4,170.2z"/>
			<path d="M647.9,176.3h-21.6v-29.8h21.3v7.6h-13v3.4h11.3v7.3h-11.3v3.9h13.3V176.3z M629.4,173.2h15.5v-1.5h-13.3v-10h11.3v-1.2
				h-11.3v-9.5h13v-1.5h-15.2V173.2z"/>
		</g>
		<g>
			<path d="M668.9,148c2.4,0,4.5,0.5,6.3,1.6c1.8,1,3.2,2.4,4,4.2l-4,2.7c-0.4-0.9-1-1.7-1.8-2.3c-0.8-0.6-1.5-1-2.3-1.3
				c-0.8-0.3-1.6-0.3-2.4-0.3c-1.2,0-2.4,0.3-3.4,0.8c-1,0.5-1.8,1.2-2.4,2.1c-0.6,0.9-1.1,1.8-1.4,2.8c-0.3,1-0.5,2.1-0.5,3.2
				c0,1.6,0.3,3,1,4.4c0.6,1.4,1.6,2.5,2.8,3.3s2.5,1.3,4,1.3c0.9,0,1.7-0.1,2.5-0.4s1.6-0.7,2.3-1.3c0.7-0.6,1.3-1.4,1.7-2.3
				l4.2,2.4c-0.5,1.3-1.4,2.4-2.6,3.3c-1.2,0.9-2.5,1.7-4,2.1c-1.4,0.5-2.9,0.7-4.4,0.7c-1.5,0-2.9-0.3-4.2-0.8s-2.5-1.2-3.6-2.1
				c-1-0.9-1.9-1.9-2.7-3.1c-0.8-1.1-1.4-2.4-1.8-3.7c-0.4-1.3-0.6-2.7-0.6-4c0-1.6,0.3-3.2,0.9-4.8c0.6-1.6,1.4-3,2.5-4.2
				c1.1-1.3,2.5-2.3,4.1-3C664.7,148.6,666.9,148,668.9,148z"/>
			<path d="M668.5,176.7c-1.6,0-3.2-0.3-4.8-0.9c-1.5-0.6-2.8-1.4-4-2.4c-1.2-1.1-2.2-2.2-3-3.5c-0.8-1.1-1.5-2.6-2-4.1
				c-0.4-1.4-0.7-3-0.7-4.5c0-1.8,0.3-3.6,1-5.4c0.7-1.9,1.6-3.4,2.8-4.7c1.2-1.4,2.8-2.6,4.6-3.4c2.1-0.9,4.5-1.4,6.5-1.4
				c2.8,0,5.1,0.6,7.1,1.8c2.1,1.2,3.7,2.9,4.6,4.9l0.5,1.2l-6.6,4.5l-0.7-1.7c-0.3-0.7-0.8-1.3-1.3-1.7c-0.7-0.5-1.3-0.9-1.9-1.1
				c-0.5-0.2-1.2-0.2-1.9-0.2c-0.9,0-1.9,0.2-2.7,0.6c-0.8,0.4-1.4,0.9-1.8,1.6c-0.6,0.9-1,1.7-1.2,2.4c-0.3,1-0.4,1.9-0.4,2.8
				c0,1.4,0.3,2.6,0.8,3.7c0.5,1.1,1.3,2,2.3,2.7c1.1,0.7,2.1,1.1,3.2,1.1c0.8,0,1.4-0.1,2-0.3c0.8-0.3,1.4-0.6,1.9-1
				c0.5-0.5,1-1.1,1.3-1.8l0.7-1.6l6.8,3.9l-0.5,1.2c-0.6,1.5-1.6,2.9-3.1,4c-1.1,0.8-2.6,1.9-4.6,2.4
				C672,176.4,670.3,176.7,668.5,176.7z M668.9,149.5c-1.9,0-3.9,0.6-5.2,1.2c-1.4,0.6-2.6,1.5-3.6,2.6c-1,1.1-1.7,2.3-2.3,3.8
				c-0.5,1.4-0.8,2.9-0.8,4.3c0,1.2,0.2,2.5,0.5,3.6c0.4,1.2,0.9,2.4,1.6,3.3c0.7,1.1,1.5,2,2.5,2.9c0.9,0.8,2,1.4,3.2,1.8
				c2.7,1,5.5,0.8,7.6,0.1c1.2-0.3,2.3-0.9,3.6-1.9c0.6-0.5,1.1-1,1.5-1.5l-1.6-0.9c-0.4,0.5-0.8,1-1.3,1.4
				c-0.7,0.6-1.7,1.2-2.8,1.6c-0.9,0.3-1.9,0.5-3.1,0.5c-1.7,0-3.3-0.5-4.9-1.6c-1.5-1-2.7-2.4-3.4-4c-0.8-1.5-1.1-3.1-1.1-5
				c0-1.2,0.2-2.4,0.6-3.7c0.3-1,0.8-2,1.6-3.2c0.8-1.1,1.8-2,3-2.6c1.2-0.6,2.7-1,4.1-1c0.9,0,1.9,0,3,0.4c0.9,0.3,1.8,0.8,2.7,1.5
				c0.5,0.4,1,0.8,1.4,1.4l1.5-1c-0.7-1-1.6-1.8-2.8-2.4C673,150,671.1,149.5,668.9,149.5z"/>
		</g>
		<g>
			<path d="M695.9,157.6v17.1h-5.1v-26.7h4.1l13.8,17.6v-17.5h5.2v26.7h-4.3L695.9,157.6z"/>
			<path d="M715.4,176.4h-6.6L697.4,162v14.3h-8.2v-29.8h6.4l11.5,14.7v-14.6h8.3V176.4z M710.3,173.3h2.1v-23.6h-2.2v20.4
				l-16.1-20.5h-1.9v23.6h2.1v-20L710.3,173.3z"/>
		</g>
		<g>
			<path d="M725.3,161.5c0-1.8,0.3-3.4,1-5.1c0.7-1.6,1.6-3.1,2.7-4.3c1.1-1.2,2.5-2.2,4.1-3c1.6-0.8,3.4-1.1,5.2-1.1
				c1.5,0,2.9,0.3,4.3,0.8c1.4,0.5,2.6,1.2,3.6,2.1c1,0.9,1.9,1.9,2.7,3s1.3,2.4,1.7,3.7c0.4,1.3,0.6,2.6,0.6,4c0,1.7-0.3,3.4-1,5
				s-1.5,3-2.7,4.3s-2.5,2.2-4.1,2.9c-1.6,0.7-3.4,1.1-5.2,1.1c-1.5,0-2.9-0.2-4.3-0.7c-1.4-0.5-2.6-1.2-3.6-2c-1-0.9-1.9-1.9-2.7-3
				s-1.3-2.4-1.7-3.7C725.5,164.1,725.3,162.8,725.3,161.5z M738.4,170.3c1.2,0,2.3-0.3,3.3-0.8c1-0.5,1.8-1.2,2.4-2
				c0.6-0.8,1.1-1.8,1.5-2.8c0.4-1,0.5-2.1,0.5-3.2c0-1.6-0.3-3-0.9-4.3c-0.6-1.3-1.5-2.4-2.7-3.3c-1.2-0.8-2.6-1.3-4.1-1.3
				c-1.2,0-2.3,0.3-3.3,0.8c-1,0.5-1.8,1.2-2.4,2c-0.6,0.8-1.1,1.8-1.5,2.8c-0.4,1-0.5,2.1-0.5,3.2c0,1.6,0.3,3,0.9,4.3
				c0.6,1.3,1.5,2.4,2.7,3.3S736.8,170.3,738.4,170.3z"/>
			<path d="M738.3,176.5c-1.8,0-3.4-0.3-4.9-0.8c-1.5-0.5-2.9-1.3-4.1-2.3c-1.2-1-2.1-2.1-3-3.3c-1-1.4-1.6-3-1.9-4.2
				c-0.5-1.6-0.7-3.1-0.7-4.5c0-2,0.4-3.9,1.1-5.7c0.8-1.9,1.8-3.5,3-4.8c1.2-1.3,2.7-2.4,4.6-3.4c2.9-1.4,6.7-1.8,10.8-0.4
				c1.6,0.6,3,1.4,4.1,2.4c1.1,1,2.1,2.1,2.9,3.3c1,1.4,1.6,3,1.9,4.2c0.5,1.5,0.7,2.9,0.7,4.5c0,2-0.4,3.9-1.1,5.7
				c-0.9,2-1.8,3.5-3,4.8c-1.3,1.4-2.8,2.5-4.6,3.3C742.3,176.1,740.3,176.5,738.3,176.5z M738.4,149.4c-1.8,0-3.3,0.3-4.6,0.9
				c-1.5,0.8-2.7,1.7-3.7,2.7c-0.9,1-1.8,2.3-2.4,3.9c-0.6,1.5-0.9,2.9-0.9,4.5c0,1.1,0.2,2.3,0.5,3.6c0.3,1,0.7,2.2,1.5,3.2
				c0.7,1,1.6,2,2.5,2.8c0.9,0.7,1.9,1.3,3.1,1.7c1.2,0.4,2.4,0.6,3.8,0.6c1.6,0,3.2-0.3,4.6-1c1.5-0.6,2.6-1.4,3.6-2.6
				c1-1.1,1.7-2.2,2.4-3.9c0.6-1.3,0.9-2.8,0.9-4.4c0-1.2-0.2-2.4-0.5-3.6c-0.3-1-0.8-2.3-1.5-3.3c-0.7-1-1.6-2-2.5-2.8
				c-0.9-0.8-1.9-1.4-3.1-1.8C740.8,149.6,739.6,149.4,738.4,149.4z M738.4,171.9c-2,0-3.6-0.5-5-1.6c-1.4-1.1-2.5-2.4-3.2-3.9
				c-0.7-1.5-1-3.2-1-5c0-1,0.1-2.4,0.6-3.8c0.5-1.3,1.1-2.3,1.7-3.2c0.8-1,1.8-1.9,3-2.5c2.9-1.4,6.2-1.2,9,0.6
				c1.5,1.1,2.5,2.4,3.3,4c0.7,1.5,1,3.2,1,5c0,1-0.1,2.4-0.6,3.8c-0.5,1.3-1.1,2.3-1.7,3.2c-0.8,1-1.8,1.9-3,2.5
				C741.1,171.6,739.8,171.9,738.4,171.9z M738.4,154c-0.9,0-1.8,0.2-2.6,0.6c-0.7,0.4-1.4,0.9-1.9,1.6c-0.5,0.6-0.9,1.5-1.3,2.5
				c-0.3,0.7-0.4,1.5-0.4,2.7c0,1.4,0.3,2.6,0.8,3.7c0.5,1.1,1.2,2,2.3,2.7c0.9,0.7,1.9,1,3.2,1c0.9,0,1.8-0.2,2.6-0.6
				c0.7-0.4,1.4-0.9,1.9-1.6c0.5-0.6,0.9-1.5,1.3-2.5c0.3-0.7,0.4-1.5,0.4-2.7c0-1.4-0.2-2.6-0.8-3.7c-0.5-1.1-1.2-2-2.2-2.7
				C740.6,154.4,739.5,154,738.4,154z"/>
		</g>
		<g>
			<path d="M762.9,174.8v-26.7h5.1v22.2h13.6v4.5H762.9z"/>
			<path d="M783.1,176.3h-21.8v-29.8h8.2v22.2h13.6V176.3z M764.4,173.2h15.7v-1.5h-13.6v-22.2h-2.1V173.2z"/>
		</g>
		<g>
			<path d="M790.2,161.5c0-1.8,0.3-3.4,1-5.1c0.7-1.6,1.6-3.1,2.7-4.3c1.1-1.2,2.5-2.2,4.1-3c1.6-0.8,3.4-1.1,5.2-1.1
				c1.5,0,2.9,0.3,4.3,0.8c1.4,0.5,2.6,1.2,3.6,2.1c1,0.9,1.9,1.9,2.7,3c0.8,1.1,1.3,2.4,1.7,3.7c0.4,1.3,0.6,2.6,0.6,4
				c0,1.7-0.3,3.4-1,5c-0.7,1.6-1.5,3-2.7,4.3s-2.5,2.2-4.1,2.9c-1.6,0.7-3.4,1.1-5.2,1.1c-1.5,0-2.9-0.2-4.3-0.7
				c-1.4-0.5-2.6-1.2-3.6-2c-1-0.9-1.9-1.9-2.7-3c-0.8-1.1-1.3-2.4-1.7-3.7C790.4,164.1,790.2,162.8,790.2,161.5z M803.2,170.3
				c1.2,0,2.3-0.3,3.3-0.8s1.8-1.2,2.4-2c0.6-0.8,1.1-1.8,1.5-2.8s0.5-2.1,0.5-3.2c0-1.6-0.3-3-0.9-4.3c-0.6-1.3-1.5-2.4-2.7-3.3
				c-1.2-0.8-2.6-1.3-4.1-1.3c-1.2,0-2.3,0.3-3.3,0.8c-1,0.5-1.8,1.2-2.4,2c-0.6,0.8-1.1,1.8-1.5,2.8c-0.4,1-0.5,2.1-0.5,3.2
				c0,1.6,0.3,3,0.9,4.3c0.6,1.3,1.5,2.4,2.7,3.3C800.3,169.9,801.7,170.3,803.2,170.3z"/>
			<path d="M803.2,176.5c-1.8,0-3.4-0.3-4.8-0.8c-1.5-0.5-2.9-1.3-4.1-2.3c-1.2-1-2.1-2.1-3-3.3c-1-1.4-1.6-3-1.9-4.2
				c-0.5-1.6-0.7-3-0.7-4.5c0-2,0.4-3.9,1.1-5.7c0.8-1.9,1.8-3.5,3-4.8c1.2-1.3,2.7-2.4,4.6-3.4c2.9-1.4,6.7-1.8,10.8-0.4
				c1.6,0.6,3,1.4,4.1,2.4c1.1,1,2.1,2.1,2.9,3.3c1,1.4,1.6,3,1.9,4.2c0.5,1.5,0.7,2.9,0.7,4.5c0,2-0.4,3.9-1.1,5.7
				c-0.9,2-1.8,3.5-3,4.8c-1.3,1.4-2.8,2.5-4.6,3.3C807.2,176.1,805.2,176.5,803.2,176.5z M803.3,149.4c-1.8,0-3.3,0.3-4.6,0.9
				c-1.5,0.7-2.7,1.7-3.7,2.7c-0.9,1-1.8,2.3-2.4,3.9c-0.6,1.5-0.9,2.9-0.9,4.5c0,1.1,0.2,2.3,0.5,3.6c0.3,1,0.7,2.2,1.5,3.3
				c0.7,1,1.6,2,2.5,2.8c0.9,0.7,1.9,1.3,3.1,1.7c1.2,0.4,2.4,0.6,3.8,0.6c1.6,0,3.2-0.3,4.6-1c1.5-0.6,2.6-1.4,3.6-2.6
				c1-1.1,1.7-2.2,2.4-3.9c0.6-1.3,0.9-2.8,0.9-4.4c0-1.2-0.2-2.4-0.5-3.6c-0.3-1-0.7-2.3-1.5-3.3c-0.7-1-1.6-2-2.5-2.8
				c-0.9-0.8-1.9-1.4-3.1-1.8C805.7,149.6,804.5,149.4,803.3,149.4z M803.2,171.9c-1.9,0-3.6-0.5-5-1.6c-1.4-1.1-2.5-2.4-3.2-3.9
				c-0.7-1.5-1-3.2-1-5c0-1,0.1-2.4,0.6-3.8c0.5-1.3,1.1-2.3,1.7-3.2c0.8-1,1.8-1.9,3-2.5c2.9-1.4,6.2-1.2,9,0.6
				c1.5,1.1,2.6,2.4,3.3,4c0.7,1.5,1,3.2,1,5c0,1-0.1,2.4-0.6,3.8c-0.5,1.3-1.1,2.3-1.7,3.2c-0.8,1-1.8,1.9-3,2.5
				C805.9,171.6,804.6,171.9,803.2,171.9z M803.2,154c-0.9,0-1.8,0.2-2.6,0.6c-0.7,0.4-1.4,0.9-1.9,1.6c-0.5,0.6-0.9,1.5-1.3,2.5
				c-0.3,0.7-0.4,1.5-0.4,2.7c0,1.4,0.3,2.6,0.8,3.7c0.5,1.1,1.2,2,2.3,2.7c1.5,1.1,3.8,1.4,5.9,0.4c0.7-0.4,1.4-0.9,1.9-1.6
				c0.5-0.6,0.9-1.5,1.3-2.5c0.3-0.7,0.4-1.5,0.4-2.7c0-1.4-0.3-2.6-0.8-3.7c-0.5-1.1-1.2-2-2.2-2.7
				C805.4,154.4,804.3,154,803.2,154z"/>
		</g>
		<g>
			<path d="M840.9,161.1h9.7v13.7h-4.3v-3c-2.1,2.1-4.6,3.2-7.5,3.2c-2.3,0-4.4-0.6-6.3-1.8c-1.9-1.2-3.4-2.8-4.6-4.9
				c-1.1-2.1-1.7-4.4-1.7-7c0-1.8,0.3-3.5,1-5.1s1.6-3,2.7-4.2c1.1-1.2,2.5-2.2,4.1-2.9c1.6-0.7,3.3-1.1,5.1-1.1
				c2.4,0,4.5,0.5,6.5,1.5c1.8,1,3.2,2.4,4.1,4.2l-3.8,2.8c-0.7-1.3-1.6-2.3-2.8-3c-1.2-0.7-2.5-1.1-4-1.1c-1.5,0-2.8,0.4-3.9,1.2
				c-1.2,0.8-2.1,1.9-2.7,3.2c-0.6,1.3-0.9,2.8-0.9,4.4c0,2.5,0.7,4.6,2.2,6.3c1.5,1.7,3.4,2.6,5.6,2.6c2.6,0,4.9-1.2,7-3.6v-1.8
				h-5.3L840.9,161.1L840.9,161.1z"/>
			<path d="M838.8,176.5c-2.6,0-5-0.7-7.2-2c-2.1-1.3-3.8-3.1-5.1-5.5c-1.3-2.4-1.9-5-1.9-7.7c0-2.1,0.4-4,1.1-5.8
				c0.8-1.8,1.8-3.3,3-4.7c1.3-1.4,2.9-2.5,4.6-3.3c1.9-0.8,3.8-1.2,5.8-1.2c2.7,0,5,0.6,7.2,1.7c2.2,1.2,3.8,2.8,4.8,4.9l0.6,1.2
				l-6.3,4.6l-0.8-1.6c-0.6-1.1-1.3-1.9-2.2-2.4c-1.1-0.6-2.1-0.9-3.3-0.9c-1.2,0-2.2,0.3-3,0.9c-1,0.7-1.7,1.5-2.2,2.6
				c-0.5,1.1-0.8,2.4-0.8,3.8c0,2.2,0.6,3.9,1.8,5.3c1.2,1.4,2.7,2.1,4.5,2.1c1.9,0,3.6-0.8,5.2-2.4h-5.1v-6.7h12.7v16.8h-7.4v-1.4
				C842.9,176,840.9,176.5,838.8,176.5z M839.1,149.4c-1.5,0-3,0.3-4.5,1c-1.4,0.6-2.6,1.5-3.6,2.6c-1,1.1-1.8,2.4-2.4,3.8
				c-0.6,1.4-0.9,2.8-0.9,4.5c0,2.2,0.5,4.3,1.5,6.2c1.1,1.8,2.4,3.3,4.1,4.4c1.7,1.1,3.5,1.6,5.5,1.6c2.4,0,4.5-0.9,6.4-2.8
				l2.6-2.6v5.2h1.3v-10.6h-6.6v0.6h5.3v3.9l-0.4,0.4c-2.3,2.8-5,4.2-8.1,4.2c-2.6,0-5-1.1-6.8-3.1c-1.7-2-2.6-4.4-2.6-7.4
				c0-1.9,0.4-3.6,1-5.1c0.7-1.6,1.8-2.9,3.3-3.9c1.3-1,2.9-1.5,4.8-1.5c1.7,0,3.3,0.4,4.8,1.3c0.9,0.6,1.8,1.3,2.4,2.2l1.4-1
				c-0.7-1-1.7-1.8-2.8-2.5C843.1,149.8,841.2,149.4,839.1,149.4z"/>
		</g>
		<g>
			<path d="M862.5,174.8v-26.7h5.1v26.7H862.5z"/>
			<path d="M869.2,176.3H861v-29.8h8.2V176.3z M864.1,173.2h2.1v-23.6h-2.1V173.2z"/>
		</g>
		<g>
			<path d="M888,148.1h5.2l9.8,26.7h-5.3l-2.5-6.7h-9.4l-2.4,6.7h-5.2L888,148.1z M894.4,164.5l-3.7-11l-3.8,11H894.4z"/>
			<path d="M905.3,176.3h-8.6l-2.5-6.7h-7.2l-2.4,6.7H876l11-29.8h7.4L905.3,176.3z M898.8,173.2h2.1l-8.7-23.6H891l5.6,16.4h-11.8
				l5.7-16.4h-1.3l-8.7,23.6h2l2.4-6.7h11.5L898.8,173.2z M889,163h3.3l-1.6-4.7L889,163z"/>
		</g>
	</g>
</g>
<g>
	<g>
		<path d="M631.9,223.3v4.5h-18.5v-26.6h18.1v4.5h-13v6.5h11.3v4.2h-11.3v7L631.9,223.3L631.9,223.3z"/>
		<path d="M633.5,229.3h-21.6v-29.7h21.2v7.6h-13v3.4h11.3v7.3h-11.3v3.9l13.4-0.1V229.3z M614.9,226.3h15.5v-1.5l-13.4,0.1v-10
			h11.3v-1.2H617v-9.5h13v-1.5h-15.1V226.3z"/>
	</g>
	<g>
		<path d="M660,227.9v-26.7h5.1v26.7H660z"/>
		<path d="M666.7,229.4h-8.2v-29.8h8.2V229.4z M661.6,226.4h2.1v-23.6h-2.1V226.4z"/>
	</g>
	<g>
		<path d="M683.5,210.7v17.1h-5.1v-26.6h4.1l13.8,17.6v-17.6h5.2v26.7h-4.3L683.5,210.7z"/>
		<path d="M703.1,229.4h-6.6L685.1,215v14.3h-8.2v-29.7h6.4l11.5,14.7v-14.7h8.3V229.4z M698,226.4h2.1v-23.6h-2.2v20.5l-16.1-20.5
			h-1.9v23.5h2.1v-20L698,226.4z"/>
	</g>
	<g>
		<path d="M712.9,214.5c0-1.8,0.3-3.4,1-5.1c0.7-1.6,1.6-3.1,2.7-4.3c1.1-1.2,2.5-2.2,4.1-3c1.6-0.8,3.4-1.1,5.2-1.1
			c1.5,0,2.9,0.3,4.3,0.8c1.4,0.5,2.6,1.2,3.6,2.1c1,0.9,1.9,1.9,2.7,3s1.3,2.4,1.7,3.7c0.4,1.3,0.6,2.6,0.6,4c0,1.7-0.3,3.4-1,5
			s-1.5,3-2.7,4.3c-1.2,1.3-2.5,2.2-4.1,2.9c-1.6,0.7-3.4,1.1-5.2,1.1c-1.5,0-2.9-0.2-4.3-0.7c-1.4-0.5-2.6-1.2-3.6-2
			c-1-0.9-1.9-1.9-2.7-3c-0.8-1.1-1.3-2.4-1.7-3.7S712.9,215.9,712.9,214.5z M726,223.5c1.2,0,2.3-0.3,3.3-0.8c1-0.5,1.8-1.2,2.4-2
			c0.6-0.8,1.1-1.8,1.5-2.8c0.4-1,0.5-2.1,0.5-3.2c0-1.6-0.3-3-0.9-4.3c-0.6-1.3-1.5-2.4-2.7-3.3c-1.2-0.8-2.6-1.3-4.1-1.3
			c-1.2,0-2.3,0.3-3.3,0.8c-1,0.5-1.8,1.2-2.4,2c-0.6,0.8-1.1,1.8-1.5,2.8c-0.3,1-0.5,2.1-0.5,3.2c0,1.6,0.3,3,0.9,4.3
			c0.6,1.3,1.5,2.4,2.7,3.3C723,223.1,724.3,223.5,726,223.5z"/>
		<path d="M725.9,229.5c-1.8,0-3.4-0.3-4.9-0.8c-1.5-0.5-2.9-1.3-4.1-2.3c-1.1-1-2.1-2.1-3-3.3c-1-1.4-1.6-3-1.9-4.2
			c-0.5-1.5-0.7-2.9-0.7-4.5c0-2,0.4-3.9,1.1-5.7c0.8-1.9,1.8-3.5,3-4.8c1.2-1.3,2.7-2.4,4.6-3.4c2.9-1.4,6.7-1.8,10.8-0.4
			c1.6,0.6,3,1.4,4.1,2.4c1.1,1,2.1,2.1,2.9,3.3c1,1.4,1.6,3,1.9,4.2c0.5,1.5,0.7,2.9,0.7,4.5c0,2-0.4,3.9-1.1,5.7
			c-0.9,2-1.8,3.4-3,4.8c-1.3,1.4-2.8,2.5-4.6,3.3C729.9,229.1,727.8,229.5,725.9,229.5z M726,202.4c-1.8,0-3.3,0.3-4.6,0.9
			c-1.5,0.8-2.7,1.7-3.7,2.7c-0.9,1-1.8,2.3-2.4,3.9c-0.6,1.5-0.9,2.9-0.9,4.5c0,1.2,0.2,2.4,0.5,3.6c0.3,1,0.7,2.3,1.5,3.3
			c0.7,1,1.6,2,2.5,2.8c0.9,0.7,1.9,1.3,3.1,1.7c1.2,0.4,2.4,0.6,3.8,0.6c1.6,0,3.2-0.3,4.6-1c1.5-0.6,2.6-1.4,3.6-2.6
			c1-1,1.7-2.3,2.4-3.9c0.6-1.3,0.9-2.8,0.9-4.4c0-1.2-0.2-2.4-0.5-3.6c-0.3-1-0.8-2.3-1.5-3.3c-0.7-1-1.6-2-2.5-2.8
			c-0.9-0.8-1.9-1.4-3.1-1.8C728.4,202.6,727.2,202.4,726,202.4z M726,225c-2,0-3.6-0.5-5.1-1.6c-1.4-1.1-2.5-2.4-3.2-3.9
			c-0.7-1.5-1-3.2-1-5c0-1.2,0.2-2.4,0.6-3.7c0.6-1.4,1.1-2.5,1.8-3.3c0.8-1,1.8-1.9,3-2.5c2.9-1.4,6.2-1.2,9,0.6
			c1.5,1.1,2.6,2.4,3.3,4c0.7,1.5,1,3.2,1,5c0,1-0.1,2.4-0.6,3.8c-0.5,1.3-1.1,2.3-1.7,3.2c-0.8,1-1.8,1.9-3,2.5
			C728.7,224.7,727.3,225,726,225z M726,207.2c-0.9,0-1.8,0.2-2.6,0.6c-0.7,0.4-1.4,0.9-1.9,1.6c-0.5,0.6-0.9,1.5-1.3,2.5
			c-0.2,0.8-0.4,1.8-0.4,2.7c0,1.4,0.3,2.6,0.8,3.7c0.5,1.1,1.2,2,2.3,2.7c0.9,0.7,1.9,1,3.2,1c0.9,0,1.8-0.2,2.6-0.6
			c0.7-0.4,1.4-0.9,1.9-1.6c0.5-0.6,0.9-1.4,1.3-2.5c0.3-0.7,0.4-1.5,0.4-2.7c0-1.4-0.3-2.6-0.8-3.7c-0.5-1.1-1.2-2-2.3-2.7
			C728.2,207.5,727.1,207.2,726,207.2z"/>
	</g>
	<g>
		<path d="M752.2,201.2l7.3,20.6l7.2-20.6h5.4l-10.1,26.7h-5l-10.2-26.7H752.2z"/>
		<path d="M763,229.4h-7.2l-11.3-29.8h8.7l6.2,17.5l6.1-17.5h8.7L763,229.4z M759.4,226.4h1.4l8.9-23.6h-2.1L759.4,226.4z
			 M758,226.4h1.5l-8.3-23.6h-2.1L758,226.4z"/>
	</g>
	<g>
		<path d="M787.5,201.2h5.2l9.8,26.7h-5.3l-2.5-6.7h-9.4l-2.4,6.7h-5.2L787.5,201.2z M793.8,217.5l-3.7-11l-3.8,11H793.8z"/>
		<path d="M804.7,229.4h-8.6l-2.5-6.7h-7.2l-2.4,6.7h-8.5l11-29.8h7.4L804.7,229.4z M798.3,226.4h2.1l-8.7-23.6h-1.3l5.5,16.3h-11.8
			l5.7-16.3h-1.2l-8.7,23.6h2l2.4-6.7h11.5L798.3,226.4z M788.4,216h3.3l-1.6-4.7L788.4,216z"/>
	</g>
	<g>
		<path d="M834.3,221.8c-0.7,1.6-1.9,3-3.5,4c-1.7,1.1-3.5,1.7-5.5,2c1.3,1.1,1.9,2.4,1.9,3.7c0,1.1-0.4,2-1.1,2.7
			c-0.7,0.7-1.8,1-3.1,1c-1.4,0-2.9-0.4-4.5-1.1l1.3-2.6c0.8,0.5,1.6,0.8,2.4,0.8c0.6,0,1.1-0.1,1.5-0.4c0.4-0.3,0.5-0.7,0.5-1.2
			c0-0.9-0.6-1.8-1.8-2.7c-1.7-0.2-3.3-0.7-4.8-1.5c-1.5-0.8-2.7-1.9-3.7-3.2s-1.8-2.7-2.4-4.2c-0.6-1.6-0.9-3.1-0.9-4.7
			c0-1.6,0.3-3.2,0.9-4.8c0.6-1.6,1.4-3,2.5-4.2c1.1-1.3,2.5-2.3,4.1-3c1.6-0.7,3.5-1.2,5.5-1.2c2.4,0,4.5,0.5,6.3,1.6
			c1.8,1.1,3.2,2.4,4,4.2l-4,2.7c-0.4-0.9-1-1.7-1.8-2.3s-1.5-1-2.3-1.3c-0.8-0.2-1.6-0.3-2.4-0.3c-1.2,0-2.4,0.3-3.4,0.8
			c-1,0.5-1.8,1.2-2.4,2.1c-0.6,0.9-1.1,1.8-1.4,2.8c-0.3,1-0.5,2.1-0.5,3.2c0,1.6,0.3,3,1,4.4c0.6,1.4,1.6,2.5,2.8,3.3
			s2.5,1.3,4,1.3c0.9,0,1.7-0.1,2.5-0.4c0.8-0.3,1.6-0.7,2.3-1.3c0.7-0.6,1.3-1.4,1.7-2.3L834.3,221.8z"/>
		<path d="M822.9,236.9c-1.6,0-3.2-0.4-5.1-1.2l-1.5-0.6l2.8-5.6l1.4,0.9c0.6,0.4,1.2,0.6,1.6,0.6c0.2,0,0.4,0,0.5,0c0,0,0,0,0,0
			c0-0.3-0.3-0.8-0.9-1.3c-1.7-0.3-3.4-0.8-4.9-1.6c-1.6-0.9-3-2.1-4.2-3.6c-1.1-1.4-2-3-2.6-4.6c-0.7-1.9-1-3.5-1-5.3
			c0-1.8,0.3-3.6,1-5.4c0.7-1.9,1.6-3.4,2.8-4.7c1.2-1.4,2.8-2.6,4.6-3.4c2-0.9,4.1-1.3,6.2-1.3c2.8,0,5.1,0.6,7.1,1.8
			c2.3,1.4,3.8,3,4.6,4.9l0.5,1.2l-6.6,4.5l-0.7-1.7c-0.3-0.7-0.8-1.3-1.3-1.7c-0.7-0.5-1.2-0.8-1.9-1.1c-1.6-0.4-3.3-0.3-4.7,0.4
			c-0.8,0.4-1.4,0.9-1.8,1.6c-0.6,0.9-1,1.7-1.2,2.4c-0.3,1-0.4,1.9-0.4,2.8c0,1.4,0.3,2.6,0.8,3.8c0.5,1.1,1.3,2,2.3,2.7
			c1.1,0.7,2.1,1.1,3.2,1.1c0.8,0,1.4-0.1,2-0.3c0.8-0.3,1.4-0.6,1.9-1c0.5-0.5,1-1.1,1.3-1.8l0.6-1.5l7.1,3.5l-0.6,1.3
			c-0.8,1.9-2.3,3.6-4.1,4.7c-1.1,0.7-2.3,1.3-3.6,1.7c0.5,0.9,0.7,1.8,0.7,2.8c0,1.5-0.5,2.8-1.6,3.8
			C826.2,236.4,824.7,236.9,822.9,236.9z M825.6,231.5c-0.1,0.5-0.3,1.2-1.1,1.8c-0.4,0.3-0.8,0.4-1.1,0.6c0.7-0.1,1.2-0.2,1.5-0.5
			c0.4-0.4,0.7-1,0.7-1.6C825.6,231.6,825.6,231.5,825.6,231.5z M822.7,230.8L822.7,230.8L822.7,230.8z M823.5,202.6
			c-2,0-3.8,0.6-4.9,1.1c-1.4,0.6-2.6,1.5-3.6,2.6c-1,1.1-1.7,2.3-2.3,3.8c-0.5,1.4-0.8,2.9-0.8,4.3c0,1.4,0.3,2.7,0.8,4.2
			c0.5,1.3,1.3,2.6,2.2,3.8c0.9,1.2,2,2.2,3.2,2.8c1.3,0.7,2.8,1.2,4.3,1.3l0.5,0.1l2-0.3c1.9-0.3,3.5-0.9,4.9-1.8
			c0.9-0.6,1.7-1.3,2.2-2.1l-1.6-0.8c-0.4,0.5-0.8,1-1.3,1.5c-0.8,0.7-1.7,1.2-2.8,1.6c-0.9,0.3-1.9,0.5-3.1,0.5
			c-1.7,0-3.3-0.5-4.9-1.6c-1.5-1-2.7-2.4-3.4-4c-0.8-1.5-1.1-3.1-1.1-5c0-1.2,0.2-2.4,0.6-3.7c0.3-1,0.8-2,1.6-3.2
			c0.8-1.1,1.8-2,3-2.6c2.1-1,4.6-1.2,6.9-0.6l0.2,0.1c0.9,0.4,1.8,0.8,2.7,1.5c0.5,0.4,1,0.8,1.4,1.4l1.5-1
			c-0.6-0.9-1.6-1.7-2.8-2.4C827.5,203.1,825.7,202.6,823.5,202.6z"/>
	</g>
	<g>
		<path d="M852.2,201.2h5.2l9.8,26.7h-5.3l-2.5-6.7H850l-2.4,6.7h-5.3L852.2,201.2z M852.3,196.5c-0.3,0-0.6,0.1-0.8,0.2
			c-0.2,0.1-0.4,0.3-0.5,0.4c-0.1,0.2-0.2,0.3-0.3,0.5s-0.1,0.3-0.1,0.4c0,0.1,0,0.2,0,0.2h-2.8c0-0.2,0-0.5,0.1-0.9
			c0.1-0.4,0.2-0.8,0.5-1.2c0.3-0.4,0.5-0.9,0.8-1.3c0.3-0.4,0.7-0.7,1.3-1c0.6-0.3,1.1-0.4,1.7-0.4c0.5,0,1,0.1,1.5,0.3
			s0.9,0.4,1.2,0.6c0.3,0.2,0.7,0.4,1.1,0.6c0.4,0.2,0.8,0.3,1.2,0.3c0.3,0,0.6-0.1,0.9-0.2c0.3-0.1,0.4-0.3,0.6-0.4
			c0.1-0.2,0.2-0.3,0.3-0.5c0.1-0.2,0.1-0.3,0.2-0.5c0.1-0.2,0-0.2,0-0.3h2.8c0,0.2,0,0.4-0.1,0.8c-0.1,0.3-0.3,0.7-0.5,1.2
			s-0.5,0.9-0.8,1.3c-0.3,0.4-0.8,0.8-1.3,1c-0.5,0.3-1.1,0.4-1.8,0.4c-0.6,0-1.2-0.1-1.8-0.4c-0.6-0.3-1.1-0.6-1.6-0.8
			C853.4,196.7,852.8,196.5,852.3,196.5z M858.6,217.5l-3.7-11l-3.8,11H858.6z"/>
		<path d="M869.5,229.4h-8.6l-2.5-6.7h-7.2l-2.4,6.7h-8.6l11.1-29.6h-4.9v-1.5c0-0.2,0-0.7,0.1-1.3c0.1-0.5,0.3-1.1,0.8-1.8
			c0.1-0.1,0.2-0.3,0.3-0.5c0.2-0.3,0.3-0.6,0.5-0.8c0.4-0.6,1-1,1.8-1.5c0.8-0.4,1.5-0.6,2.4-0.6c0.7,0,1.4,0.1,2.1,0.4
			c0.6,0.2,1.1,0.5,1.5,0.8c0.3,0.2,0.6,0.3,0.9,0.5c0.2,0.1,0.4,0.1,0.5,0.1c0.1,0,0.2,0,0.3-0.1c0,0,0,0,0,0c0,0,0,0,0,0l0.1-0.1
			c0,0,0,0,0-0.1v-1.5h5.9v1.5c0,0.3,0,0.6-0.1,1.2c-0.1,0.3-0.2,0.6-0.3,0.8c-0.1,0.2-0.2,0.4-0.2,0.6c-0.3,0.7-0.7,1.2-1,1.7
			c-0.5,0.6-1.1,1.2-1.9,1.5c-0.7,0.4-1.5,0.6-2.5,0.6c-0.9,0-1.7-0.2-2.5-0.6c-0.2-0.1-0.4-0.2-0.6-0.3c-0.3-0.1-0.5-0.3-0.8-0.4
			c-0.7-0.2-1-0.2-1.3-0.2c0,0-0.1,0-0.1,0.1c0,0,0,0.1-0.1,0.1v1.4h6.4L869.5,229.4z M863,226.4h2.1l-8.7-23.6h-1.2l5.5,16.3h-11.8
			l5.7-16.3h-1.3l-8.8,23.6h2.1l2.4-6.7h11.5L863,226.4z M853.2,216h3.3l-1.6-4.7L853.2,216z M852.2,195c-0.4,0-0.7,0.1-1,0.2
			c-0.1,0-0.2,0.1-0.2,0.1c0.4-0.2,1.2-0.3,1.9-0.3C852.7,195,852.5,195,852.2,195z"/>
	</g>
	<g>
		<path d="M875.1,214.5c0-1.8,0.3-3.4,1-5.1c0.7-1.6,1.6-3.1,2.7-4.3c1.1-1.2,2.5-2.2,4.1-3c1.6-0.8,3.4-1.1,5.2-1.1
			c1.5,0,2.9,0.3,4.3,0.8s2.6,1.2,3.6,2.1c1,0.9,1.9,1.9,2.7,3s1.3,2.4,1.7,3.7c0.4,1.3,0.6,2.6,0.6,4c0,1.7-0.3,3.4-1,5
			s-1.5,3-2.7,4.3c-1.2,1.3-2.5,2.2-4.1,2.9c-1.6,0.7-3.4,1.1-5.2,1.1c-1.5,0-2.9-0.2-4.3-0.7c-1.4-0.5-2.6-1.2-3.6-2
			c-1-0.9-1.9-1.9-2.7-3c-0.8-1.1-1.3-2.4-1.7-3.7C875.3,217.2,875.1,215.9,875.1,214.5z M888.2,223.5c1.2,0,2.3-0.3,3.3-0.8
			c1-0.5,1.8-1.2,2.4-2s1.1-1.8,1.5-2.8c0.4-1,0.5-2.1,0.5-3.2c0-1.6-0.3-3-0.9-4.3c-0.6-1.3-1.5-2.4-2.7-3.3
			c-1.2-0.8-2.6-1.3-4.1-1.3c-1.2,0-2.3,0.3-3.3,0.8c-1,0.5-1.8,1.2-2.4,2c-0.6,0.8-1.1,1.8-1.5,2.8c-0.3,1-0.5,2.1-0.5,3.2
			c0,1.6,0.3,3,0.9,4.3c0.6,1.3,1.5,2.4,2.7,3.3C885.3,223.1,886.6,223.5,888.2,223.5z"/>
		<path d="M888.1,229.5c-1.8,0-3.4-0.3-4.9-0.8c-1.5-0.5-2.9-1.3-4.1-2.3c-1.1-1-2.1-2.1-3-3.3c-1-1.4-1.6-3-1.9-4.2
			c-0.5-1.5-0.7-2.9-0.7-4.5c0-2,0.4-3.9,1.1-5.7c0.8-1.9,1.8-3.5,3-4.8c1.2-1.3,2.7-2.4,4.6-3.4c2.9-1.4,6.7-1.8,10.8-0.4
			c1.6,0.6,3,1.4,4.1,2.4c1.1,1,2.1,2.1,2.9,3.3c1,1.4,1.6,3,1.9,4.2c0.5,1.5,0.7,2.9,0.7,4.5c0,2-0.4,3.9-1.1,5.7
			c-0.9,2-1.8,3.4-3,4.8c-1.3,1.4-2.8,2.5-4.6,3.3C892.1,229.1,890.1,229.5,888.1,229.5z M888.2,202.4c-1.8,0-3.3,0.3-4.6,0.9
			c-1.5,0.8-2.7,1.7-3.7,2.7c-0.9,1-1.8,2.3-2.4,3.9c-0.6,1.5-0.9,2.9-0.9,4.5c0,1.2,0.2,2.4,0.5,3.6c0.3,1,0.8,2.3,1.5,3.3
			c0.7,1,1.6,2,2.5,2.8c0.9,0.7,1.9,1.3,3.1,1.7c1.2,0.4,2.4,0.6,3.8,0.6c1.6,0,3.2-0.3,4.6-1c1.5-0.6,2.6-1.4,3.6-2.6
			c1-1,1.7-2.3,2.4-3.9c0.6-1.3,0.9-2.8,0.9-4.4c0-1.2-0.2-2.4-0.5-3.6c-0.3-1-0.8-2.3-1.5-3.3c-0.7-1-1.6-2-2.5-2.8
			c-0.9-0.8-1.9-1.4-3.1-1.8C890.7,202.6,889.5,202.4,888.2,202.4z M888.2,225c-2,0-3.6-0.5-5.1-1.6c-1.4-1.1-2.5-2.4-3.2-3.9
			c-0.7-1.5-1-3.2-1-5c0-1.2,0.2-2.4,0.6-3.7c0.6-1.4,1.1-2.5,1.8-3.3c0.8-1,1.8-1.9,3-2.5c2.9-1.4,6.2-1.2,9,0.6
			c1.5,1.1,2.6,2.4,3.3,4c0.7,1.5,1,3.2,1,5c0,1-0.1,2.4-0.6,3.8c-0.5,1.3-1.1,2.3-1.7,3.2c-0.8,1-1.8,1.9-3,2.5
			C890.9,224.7,889.6,225,888.2,225z M888.2,207.2c-0.9,0-1.8,0.2-2.6,0.6c-0.7,0.4-1.4,0.9-1.9,1.6c-0.5,0.6-0.9,1.4-1.3,2.5
			c-0.2,0.8-0.4,1.8-0.4,2.7c0,1.4,0.3,2.6,0.8,3.7c0.5,1.1,1.2,2,2.3,2.7c0.9,0.7,1.9,1,3.2,1c0.9,0,1.8-0.2,2.6-0.6
			c0.7-0.4,1.4-0.9,1.9-1.6c0.5-0.6,0.9-1.5,1.3-2.5c0.3-0.7,0.4-1.5,0.4-2.7c0-1.4-0.2-2.6-0.8-3.7c-0.5-1.1-1.2-2-2.3-2.7
			C890.5,207.5,889.3,207.2,888.2,207.2z"/>
	</g>
</g>
<g>
	<path class="st0" d="M159.4,135.3l21.2,23.3l25-23.3h-4.1v-10.7c0-48.1-36.7-53.3-52.5-53.3h-0.4c-22.1,0.1-41.9,10.9-55.9,30.5
		c-11.1,15.7-16.6,34.6-15.1,51.5c7.3-26.9,28.3-52.4,53.4-52.4h0.5c11.5,0.2,21.6,4.4,27.6,11.6c4.8,5.8,6.6,12.9,5.3,20.7
		l-0.4,2.2h-4.6V135.3z M75.8,167.7c-7.1-20.7-2.3-47.8,12.7-68.9c14.6-20.7,36.6-32.5,60.1-32.6h0.4c36.1,0,57.7,21.9,57.7,58.5
		v5.5h12.1l-38.6,36l-32.8-35.9h12.1c0.4-5.3-1.1-10.2-4.4-14.2c-5-6-13.6-9.6-23.7-9.7h-0.4c-25.7,0-48.3,32.2-51,61L75.8,167.7z"
		/>
	<path class="st0" d="M240.7,119.6h-11.8l36.2-34l32.9,34h-11.4c1.8,50.3-35.5,127.6-116.5,127.6c-40.6,0-59.9-19.3-63.2-21.5
		s-36.1-39-30.3-67.3c10.3,26.3,32.2,60,75.5,60C221.8,218.3,245.1,145.1,240.7,119.6"/>
	<path class="st0" d="M180.1,212.1c12.6,0,23-10.2,23-23c0-12.6-10.2-23-23-23c-12.6,0-22.9,10.2-22.9,23
		C157.1,201.9,167.4,212.1,180.1,212.1"/>
	<polygon class="st0" points="89,173.4 93.6,148.5 98.8,148.5 94.2,173.4 	"/>
	<path class="st0" d="M97.8,173.4l4-21.7c0.4-2.1,2-3.6,4.3-3.6c2.5,0,3.3,1.9,3.8,3.6l3.7,12.7l0,0h0.1l3-16h5.2l-4,21.7
		c-0.4,1.9-1.4,3.6-3.6,3.6c-2.2,0-2.9-1.3-3.6-3.7l-4.3-14.5l-0.1,0.1l-3.3,17.8L97.8,173.4L97.8,173.4z"/>
	<path class="st0" d="M120.5,173.4l3.1-16.8c0.8-4.5,4.8-8.5,10.2-8.5c5.1,0,7.9,3.8,7,8.5c-0.9,4.6-4.9,8.5-10.2,8.5h-1.9l0.9-4.9
		c2.9,0,5.3-0.4,5.9-3.5c0.4-2.2-0.7-3.5-2.7-3.5c-2.1,0-3.6,1.3-4,3.5l-3.1,16.8h-5.2V173.4z"/>
	<path class="st0" d="M157.4,153.5h-3.2c-4,0-6.4,2.8-7.3,5.1h9.5l-0.9,4.6h-9.4c0,2.4,1.4,5.1,5.4,5.1h3.2l-0.9,4.9h-2.7
		c-8.5,0-11-6.3-9.9-12.4c1.1-6.1,6-12.4,14.5-12.4h2.7L157.4,153.5z"/>
</g>
<g>
	<path d="M1283.1,246.6"/>
	<g>
		<g>
			<path d="M1059.4,261.7c2.6,0,4.8,0.9,6.5,2.8c1.7,1.8,2.6,4.1,2.6,6.8c0,2.7-0.9,4.9-2.6,6.8c-1.7,1.8-3.9,2.8-6.5,2.8h-7.5
				v-19.1H1059.4z M1059.4,277.9c1.8,0,3.3-0.6,4.4-1.9c1.1-1.2,1.7-2.8,1.7-4.7c0-1.9-0.6-3.5-1.7-4.7c-1.1-1.2-2.6-1.8-4.4-1.8
				h-4.4v13.1H1059.4z"/>
			<path d="M1091,278.3c-1.9,1.9-4.3,2.9-7,2.9c-2.8,0-5.1-1-7-2.9c-1.9-1.9-2.9-4.3-2.9-7c0-2.8,1-5.1,2.9-7c1.9-1.9,4.3-2.9,7-2.9
				c2.8,0,5.1,1,7,2.9c1.9,1.9,2.9,4.3,2.9,7C1093.9,274.1,1092.9,276.4,1091,278.3z M1079.1,276.2c1.3,1.3,2.9,2,4.8,2
				c1.9,0,3.5-0.7,4.8-2c1.3-1.3,2-2.9,2-4.9s-0.7-3.6-2-4.9c-1.3-1.3-2.9-2-4.8-2c-1.9,0-3.5,0.7-4.8,2c-1.3,1.3-2,2.9-2,4.9
				S1077.8,274.9,1079.1,276.2z"/>
			<path d="M1113.8,277.9h7.8v3h-10.9v-19.1h3.1V277.9z"/>
			<path d="M1140.5,280.9l-1.3-3.9h-8.1l-1.3,3.9h-3.4l6.9-19.1h3.8l6.9,19.1H1140.5z M1132,274.1h6.1l-3-8.6L1132,274.1z"/>
			<path d="M1157,261.7c2.6,0,4.8,0.9,6.5,2.8c1.7,1.8,2.6,4.1,2.6,6.8c0,2.7-0.9,4.9-2.6,6.8c-1.7,1.8-3.9,2.8-6.5,2.8h-7.5v-19.1
				H1157z M1157,277.9c1.8,0,3.3-0.6,4.4-1.9c1.1-1.2,1.7-2.8,1.7-4.7c0-1.9-0.6-3.5-1.7-4.7c-1.1-1.2-2.6-1.8-4.4-1.8h-4.4v13.1
				H1157z"/>
			<path d="M1188.5,278.3c-1.9,1.9-4.3,2.9-7,2.9c-2.8,0-5.1-1-7-2.9c-1.9-1.9-2.9-4.3-2.9-7c0-2.8,1-5.1,2.9-7
				c1.9-1.9,4.3-2.9,7-2.9c2.8,0,5.1,1,7,2.9c1.9,1.9,2.9,4.3,2.9,7C1191.4,274.1,1190.4,276.4,1188.5,278.3z M1176.7,276.2
				c1.3,1.3,2.9,2,4.8,2c1.9,0,3.5-0.7,4.8-2c1.3-1.3,2-2.9,2-4.9s-0.7-3.6-2-4.9c-1.3-1.3-2.9-2-4.8-2c-1.9,0-3.5,0.7-4.8,2
				c-1.3,1.3-2,2.9-2,4.9S1175.4,274.9,1176.7,276.2z"/>
			<path d="M1215.7,261.7c2.6,0,4.8,0.9,6.5,2.8c1.7,1.8,2.6,4.1,2.6,6.8c0,2.7-0.9,4.9-2.6,6.8c-1.7,1.8-3.9,2.8-6.5,2.8h-7.5
				v-19.1H1215.7z M1215.7,277.9c1.8,0,3.3-0.6,4.4-1.9c1.1-1.2,1.7-2.8,1.7-4.7c0-1.9-0.6-3.5-1.7-4.7c-1.1-1.2-2.6-1.8-4.4-1.8
				h-4.4v13.1H1215.7z"/>
			<path d="M1247.3,278.3c-1.9,1.9-4.3,2.9-7,2.9c-2.8,0-5.1-1-7-2.9c-1.9-1.9-2.9-4.3-2.9-7c0-2.8,1-5.1,2.9-7
				c1.9-1.9,4.3-2.9,7-2.9c2.8,0,5.1,1,7,2.9c1.9,1.9,2.9,4.3,2.9,7C1250.2,274.1,1249.2,276.4,1247.3,278.3z M1235.4,276.2
				c1.3,1.3,2.9,2,4.8,2c1.9,0,3.5-0.7,4.8-2c1.3-1.3,2-2.9,2-4.9s-0.7-3.6-2-4.9c-1.3-1.3-2.9-2-4.8-2c-1.9,0-3.5,0.7-4.8,2
				c-1.3,1.3-2,2.9-2,4.9S1234.1,274.9,1235.4,276.2z"/>
			<path d="M1274,261.7c1.8,0,3.3,0.6,4.5,1.8c1.2,1.2,1.8,2.7,1.8,4.5c0,1.8-0.6,3.3-1.8,4.5c-1.2,1.2-2.7,1.8-4.5,1.8h-3.9v6.6
				h-3.1v-19.1H1274z M1274,271.4c0.9,0,1.7-0.3,2.3-0.9c0.6-0.6,0.9-1.4,0.9-2.4c0-1-0.3-1.8-0.9-2.4c-0.6-0.6-1.4-0.9-2.3-0.9
				h-3.9v6.7H1274z"/>
			<path d="M1302.4,278.3c-1.9,1.9-4.3,2.9-7,2.9c-2.8,0-5.1-1-7-2.9c-1.9-1.9-2.9-4.3-2.9-7c0-2.8,1-5.1,2.9-7
				c1.9-1.9,4.3-2.9,7-2.9c2.8,0,5.1,1,7,2.9c1.9,1.9,2.9,4.3,2.9,7C1305.3,274.1,1304.4,276.4,1302.4,278.3z M1290.6,276.2
				c1.3,1.3,2.9,2,4.8,2c1.9,0,3.5-0.7,4.8-2c1.3-1.3,2-2.9,2-4.9s-0.7-3.6-2-4.9c-1.3-1.3-2.9-2-4.8-2c-1.9,0-3.5,0.7-4.8,2
				c-1.3,1.3-2,2.9-2,4.9S1289.3,274.9,1290.6,276.2z"/>
			<path d="M1315.8,280.9l-6.6-19.1h3.4l5.1,15.3l5.1-15.3h3.4l-6.6,19.1H1315.8z"/>
			<path d="M1347,278.3c-1.9,1.9-4.3,2.9-7,2.9c-2.8,0-5.1-1-7-2.9c-1.9-1.9-2.9-4.3-2.9-7c0-2.8,1-5.1,2.9-7c1.9-1.9,4.3-2.9,7-2.9
				c2.8,0,5.1,1,7,2.9c1.9,1.9,2.9,4.3,2.9,7C1349.8,274.1,1348.9,276.4,1347,278.3z M1335.1,276.2c1.3,1.3,2.9,2,4.8,2
				c1.9,0,3.5-0.7,4.8-2c1.3-1.3,2-2.9,2-4.9s-0.7-3.6-2-4.9c-1.3-1.3-2.9-2-4.8-2c-1.9,0-3.5,0.7-4.8,2c-1.3,1.3-2,2.9-2,4.9
				S1333.8,274.9,1335.1,276.2z"/>
			<path d="M1377.9,270.9c0.8,0.4,1.5,1,2,1.8c0.5,0.8,0.7,1.6,0.7,2.6c0,1.6-0.6,2.9-1.7,3.9c-1.1,1-2.5,1.6-4.1,1.6h-8.2v-19.1
				h7.6c1.6,0,2.9,0.5,4,1.5c1.1,1,1.6,2.3,1.6,3.8C1379.8,268.7,1379.2,270,1377.9,270.9z M1374.2,264.7h-4.5v5h4.5
				c0.7,0,1.3-0.2,1.7-0.7c0.5-0.5,0.7-1.1,0.7-1.8s-0.2-1.3-0.7-1.8C1375.5,264.9,1374.9,264.7,1374.2,264.7z M1374.8,277.9
				c0.7,0,1.3-0.3,1.8-0.8c0.5-0.5,0.8-1.2,0.8-1.9c0-0.7-0.3-1.4-0.8-1.9c-0.5-0.5-1.1-0.8-1.8-0.8h-5.1v5.4H1374.8z"/>
			<path d="M1397.7,280.9l-4-7h-3.7v7h-3.1v-19.1h7.6c1.7,0,3.2,0.6,4.4,1.8c1.2,1.2,1.8,2.6,1.8,4.4c0,1.2-0.4,2.3-1.1,3.3
				c-0.7,1-1.6,1.7-2.7,2.2l4.3,7.4H1397.7z M1390,264.7v6.4h4.5c0.8,0,1.5-0.3,2.1-0.9c0.6-0.6,0.9-1.4,0.9-2.3
				c0-0.9-0.3-1.6-0.9-2.3c-0.6-0.6-1.3-0.9-2.1-0.9H1390z"/>
			<path d="M1419.6,280.9l-1.3-3.9h-8.1l-1.3,3.9h-3.4l6.9-19.1h3.8l6.9,19.1H1419.6z M1411.2,274.1h6.1l-3-8.6L1411.2,274.1z"/>
			<path d="M1434.4,281.2c-1.8,0-3.4-0.4-4.7-1.3c-1.3-0.8-2.2-2-2.7-3.4l2.7-1.6c0.8,2.1,2.3,3.2,4.8,3.2c1.2,0,2.1-0.2,2.7-0.7
				c0.6-0.5,0.9-1.1,0.9-1.8c0-0.8-0.3-1.4-1-1.8c-0.6-0.4-1.8-0.9-3.4-1.3c-0.9-0.3-1.6-0.6-2.2-0.8s-1.2-0.5-1.8-1
				c-0.6-0.4-1.1-1-1.4-1.6c-0.3-0.6-0.5-1.4-0.5-2.2c0-1.7,0.6-3,1.8-4c1.2-1,2.6-1.5,4.3-1.5c1.5,0,2.9,0.4,4,1.1
				c1.1,0.7,2,1.8,2.6,3.1l-2.6,1.5c-0.8-1.8-2.1-2.7-4-2.7c-0.9,0-1.6,0.2-2.2,0.6c-0.5,0.4-0.8,1-0.8,1.7c0,0.7,0.3,1.2,0.8,1.6
				c0.6,0.4,1.6,0.8,3,1.3c0.7,0.3,1.2,0.5,1.6,0.6c0.3,0.1,0.8,0.3,1.4,0.5c0.6,0.2,1.1,0.5,1.4,0.7c0.3,0.3,0.6,0.6,1,1
				c0.4,0.4,0.6,0.8,0.7,1.3c0.1,0.5,0.2,1.1,0.2,1.7c0,1.7-0.6,3.1-1.9,4.1C1438.1,280.7,1436.5,281.2,1434.4,281.2z"/>
			<path d="M1447.3,261.7h3.1v19.1h-3.1V261.7z"/>
			<path d="M1461,277.9h7.8v3h-10.9v-19.1h3.1V277.9z"/>
			<path d="M1477.8,277.9h8.5v3h-11.6v-19.1h11.5v3h-8.3v5h7.6v3h-7.6V277.9z"/>
			<path d="M1492.7,261.7h3.1v19.1h-3.1V261.7z"/>
			<path d="M1514.1,280.9l-4-7h-3.7v7h-3.1v-19.1h7.6c1.7,0,3.2,0.6,4.4,1.8c1.2,1.2,1.8,2.6,1.8,4.4c0,1.2-0.4,2.3-1.1,3.3
				c-0.7,1-1.6,1.7-2.7,2.2l4.3,7.4H1514.1z M1506.3,264.7v6.4h4.5c0.8,0,1.5-0.3,2.1-0.9c0.6-0.6,0.9-1.4,0.9-2.3
				c0-0.9-0.3-1.6-0.9-2.3c-0.6-0.6-1.3-0.9-2.1-0.9H1506.3z"/>
			<path d="M1539.3,278.3c-1.9,1.9-4.3,2.9-7,2.9c-2.8,0-5.1-1-7-2.9c-1.9-1.9-2.9-4.3-2.9-7c0-2.8,1-5.1,2.9-7
				c1.9-1.9,4.3-2.9,7-2.9c2.8,0,5.1,1,7,2.9c1.9,1.9,2.9,4.3,2.9,7C1542.2,274.1,1541.3,276.4,1539.3,278.3z M1527.5,276.2
				c1.3,1.3,2.9,2,4.8,2c1.9,0,3.5-0.7,4.8-2c1.3-1.3,2-2.9,2-4.9s-0.7-3.6-2-4.9c-1.3-1.3-2.9-2-4.8-2c-1.9,0-3.5,0.7-4.8,2
				c-1.3,1.3-2,2.9-2,4.9S1526.2,274.9,1527.5,276.2z"/>
		</g>
		<g>
			<path d="M1168.6,56.4v2c0,7.9-5.3,13-12.3,13c-7.4,0-13.3-5.8-13.3-13.2c0-7.4,5.9-13.3,13.2-13.3c4.6,0,8.9,2.4,11.3,6.3
				l-5.8,3.5c-1.1-2-3.2-3.2-5.5-3.2c-3.7,0-6.4,2.9-6.4,6.7c0,3.8,2.6,6.5,6.5,6.5c2.7,0,4.4-1.3,5-3h-6.8v-5.4H1168.6z"/>
			<path d="M1177,58.1c0-7.4,5.9-13.2,13.3-13.2c7.3,0,13.2,5.9,13.2,13.2c0,7.4-5.9,13.2-13.2,13.2
				C1182.9,71.3,1177,65.5,1177,58.1z M1196.1,58.1c0-3.6-2.6-6.2-5.9-6.2c-3.4,0-6,2.7-6,6.2c0,3.6,2.6,6.2,6,6.2
				C1193.6,64.4,1196.1,61.7,1196.1,58.1z"/>
			<path d="M1235.4,45.5l-9.9,25.3h-6.8l-9.8-25.3h7.3l5.9,15.6l5.9-15.6H1235.4z"/>
			<path d="M1250.1,51.7v3.8h7.4v5.4h-7.4v3.8h11.3v6.2h-18.1V45.5h18.1v6.2H1250.1z"/>
			<path d="M1280.6,62h-2.9v8.7h-6.7V45.5h12.2c4.9,0,8.7,3.5,8.7,8.2c0,3.2-1.7,5.9-4.4,7.3l5.6,9.7h-7.5L1280.6,62z M1277.7,56.3
				h4.8c1.6,0,2.6-1.1,2.6-2.3c0-1.3-1-2.4-2.6-2.4h-4.8V56.3z"/>
			<path d="M1324.2,45.5v25.3h-5.8l-10.2-13.3v13.3h-6.7V45.5h5.7l10.2,13.3V45.5H1324.2z"/>
			<path d="M1333.1,58.1c0-7.4,5.9-13.2,13.3-13.2c7.3,0,13.2,5.9,13.2,13.2c0,7.4-5.9,13.2-13.2,13.2
				C1338.9,71.3,1333.1,65.5,1333.1,58.1z M1352.2,58.1c0-3.6-2.6-6.2-5.9-6.2c-3.4,0-6,2.7-6,6.2c0,3.6,2.6,6.2,6,6.2
				C1349.6,64.4,1352.2,61.7,1352.2,58.1z"/>
			<path d="M1415.6,58.1c0,7.2-5.8,12.6-13.5,12.6h-10.3V45.5h10.3C1409.8,45.5,1415.6,50.9,1415.6,58.1z M1408.6,58.1
				c0-3.7-2.7-6.1-6.8-6.1h-3.1v12.1h3.1C1405.8,64.2,1408.6,61.8,1408.6,58.1z"/>
			<path d="M1421.8,58.1c0-7.4,5.9-13.2,13.3-13.2c7.3,0,13.2,5.9,13.2,13.2c0,7.4-5.9,13.2-13.2,13.2
				C1427.7,71.3,1421.8,65.5,1421.8,58.1z M1440.9,58.1c0-3.6-2.6-6.2-5.9-6.2c-3.4,0-6,2.7-6,6.2c0,3.6,2.6,6.2,6,6.2
				C1438.4,64.4,1440.9,61.7,1440.9,58.1z"/>
		</g>
		<path d="M1323.2,193.2l22.6,38h18.7v-71.9l-41.3,0V193.2z M1381,148.6h-14.1v82.7h14.1c22.8,0,41.3-18.5,41.3-41.3
			C1422.3,167.1,1403.8,148.6,1381,148.6z M1351.7,157h12.8v-57h-12.8c-15.7,0-28.5,12.8-28.5,28.5
			C1323.2,144.2,1336,157,1351.7,157z M1125.9,102.8v75.5h49.1L1125.9,102.8z M1478.7,186.3h43.8V100h-43.8V186.3z M1414.5,100
			h-47.6v46.2h47.6V100z M1524.9,188.7v42.5h43.8v-42.5H1524.9z M1478.7,231.2h43.8v-42.5h-43.8V231.2z M1424.7,231.2h43.8V100
			h-43.8V231.2z M1323.2,231.2h19.9l-19.9-33.4V231.2z M1105.8,125.6c0-14.1-11.5-25.6-25.6-25.6h-9.5v51.2h9.5
			C1094.3,151.2,1105.8,139.7,1105.8,125.6z M1024.5,151.2h43.8V100h-43.8V151.2z M1024.5,231.2h43.8v-77.6h-43.8V231.2z
			 M1084.7,153.6h-14v77.6h14c21.4,0,38.8-17.4,38.8-38.8C1123.5,171,1106.1,153.6,1084.7,153.6z M1198.4,214.3l-10,16.9h21l0,0
			L1198.4,214.3z M1199.7,212.1l12.5,19.2h3.6c0.3-13,5.6-25.2,14.9-34.4c9.4-9.2,21.8-14.3,35-14.3c13.2,0,25.6,5.1,35,14.3
			c9.3,9.2,14.6,21.4,14.9,34.4h5.2v-37.4l-55.2-92.7L1199.7,212.1z M1216.3,139.1c0-21.6-17.6-39.2-39.2-39.2h-50.3l50.9,78.3
			C1199,178,1216.3,160.4,1216.3,139.1z M1265.7,184.8c-12.5,0-24.3,4.8-33.3,13.6c-8.9,8.7-13.9,20.3-14.2,32.7h95.1
			c-0.3-12.4-5.4-24-14.2-32.7C1290,189.7,1278.2,184.8,1265.7,184.8z M1176.5,180.7h-50.6v50.6h59.7l11.4-19.1L1176.5,180.7z"/>
	</g>
</g>
</svg>
